<svg xmlns="http://www.w3.org/2000/svg" viewBox="0 0 641.91 98.68"><defs><style>.cls-1{fill:#3a3a3a;}.cls-2{fill:#9b9b9b;}</style></defs><g id="Layer_2" data-name="Layer 2"><g id="Layer_1-2" data-name="Layer 1"><path class="cls-1" d="M51.44,95C46,97.54,38.2,98.68,32,98.68c-17.32,0-32-9.16-32-28.39a38.47,38.47,0,0,1,10.06-26.1,33.23,33.23,0,0,1,24.83-11c14.9,0,26.74,9.55,26.74,25.73a47.46,47.46,0,0,1-1.4,11.2H15.28C15.79,80.6,23.17,86,33.62,86c7.13,0,15-2.55,20.37-5.09ZM47.37,59.47c0-8.66-4.71-13.76-13-13.76-8.53,0-14.64,5.35-17.44,13.76Z"/><path class="cls-1" d="M86.33,0h15.41L91.17,60h.26l30.18-25.33h19l-33.49,28,21.65,34.63H111.17L90.66,64.05h-.25L84.55,97.28H69.14Z"/><path class="cls-1" d="M156.88,0h15.41L155.1,97.28H139.69Z"/><path class="cls-1" d="M225.77,95c-5.48,2.55-13.24,3.69-19.48,3.69-17.32,0-32-9.16-32-28.39a38.47,38.47,0,0,1,10.06-26.1,33.27,33.27,0,0,1,24.83-11C224.11,33.23,236,42.78,236,59a47,47,0,0,1-1.41,11.2h-45C190.11,80.6,197.5,86,207.94,86c7.13,0,15-2.55,20.37-5.09Zm-4.08-35.52c0-8.66-4.71-13.76-13-13.76-8.54,0-14.65,5.35-17.45,13.76Z"/><path class="cls-1" d="M260.66,0h15.41L265.5,60h.25l30.18-25.33h19l-33.48,28,21.64,34.63H285.49L265,64.05h-.26l-5.85,33.23H243.47Z"/><path class="cls-1" d="M338.59,71.43a38.74,38.74,0,0,0-.64,6.12c0,4.84,2.42,7.89,8.15,7.89a25.46,25.46,0,0,0,7.64-1.4l-2.42,13.37a29.64,29.64,0,0,1-8.66,1.27c-11,0-20.37-5.34-20.37-18.33a47.8,47.8,0,0,1,.89-8.53l4.2-24.07H316.56l2.29-13.11h10.83l3.05-17.45,15.54-.89-3.19,18.34h17.45l-2.29,13.11H342.79Z"/><path class="cls-1" d="M364.31,69.65a37.9,37.9,0,0,1,10.45-26.1c6.36-6.62,15.15-10.32,25.21-10.32,17.57,0,30.69,11.21,30.69,29a37.9,37.9,0,0,1-10.45,26.1C413.85,95,405.06,98.68,395,98.68,377.43,98.68,364.31,87.48,364.31,69.65Zm44.83,9.81a24.27,24.27,0,0,0,6.11-16.17c0-9.43-5.86-16.56-16.17-16.56a17.28,17.28,0,0,0-13.25,5.73,24.27,24.27,0,0,0-6.11,16.17c0,9.43,5.86,16.56,16.17,16.56A17.28,17.28,0,0,0,409.14,79.46Z"/><path class="cls-1" d="M441.1,76.66a42.31,42.31,0,0,0,25.08,9c3.19,0,6.12-.51,7.9-2.17a6.18,6.18,0,0,0,2-4.58c0-5.48-7.39-5.48-15.54-7.77-10.69-2.93-16.81-7.64-16.81-16.43a20.27,20.27,0,0,1,7-15.15c4.84-4.33,11.71-6.37,19.35-6.37A57.17,57.17,0,0,1,494.33,39l-2.55,14.39c-6.24-4.07-15.41-7-22.67-7-3.05,0-5.34.51-7,1.66a5.93,5.93,0,0,0-2.67,4.83c0,5.35,7.51,5.35,15.28,7.39C485.67,63,491.65,68,491.65,77.17a20.36,20.36,0,0,1-6.11,14.51c-5.09,5.09-12.61,7-20.76,7a54.66,54.66,0,0,1-26.35-6.87Z"/><path class="cls-2" d="M504.26,89.26a10.51,10.51,0,0,1,10.57-10.44,9.35,9.35,0,0,1,9.55,9.42,10.51,10.51,0,0,1-10.57,10.44A9.35,9.35,0,0,1,504.26,89.26Z"/><path class="cls-2" d="M552,34.64h15.41L556.34,97.28H540.93ZM564,3.82a9.06,9.06,0,0,1,9.3,9A10.12,10.12,0,0,1,563,22.79a8.91,8.91,0,0,1-9-9A10,10,0,0,1,564,3.82Z"/><path class="cls-2" d="M575.57,69.65A37.88,37.88,0,0,1,586,43.55c6.37-6.62,15.15-10.32,25.21-10.32,17.57,0,30.69,11.21,30.69,29a37.93,37.93,0,0,1-10.44,26.1C625.1,95,616.32,98.68,606.26,98.68,588.68,98.68,575.57,87.48,575.57,69.65Zm44.82,9.81a24.27,24.27,0,0,0,6.11-16.17c0-9.43-5.85-16.56-16.17-16.56a17.26,17.26,0,0,0-13.24,5.73A24.27,24.27,0,0,0,591,68.63c0,9.43,5.85,16.56,16.17,16.56A17.26,17.26,0,0,0,620.39,79.46Z"/></g></g></svg>