<svg xmlns="http://www.w3.org/2000/svg" viewBox="0 0 807.55 135.24"><defs><style>.cls-1{fill:#fff;}</style></defs><g id="Layer_2" data-name="Layer 2"><g id="Layer_1-2" data-name="Layer 1"><g id="Layer_2-2" data-name="Layer 2"><g id="Layer_1-2-2" data-name="Layer 1-2"><path class="cls-1" d="M115.41,34.67l6.89-6.89A67.65,67.65,0,0,0,2.94,87.38L21.11,69.16a46.47,46.47,0,0,1,71-41.1l-64,64.05-8.35,8.34-6.89,6.89a69.72,69.72,0,0,0,6.89,8.07,70.47,70.47,0,0,0,8.06,6.89l6.89-6.89L43,107.06l64-64Z"/><path class="cls-1" d="M132.25,47.74,114,65.93A46.41,46.41,0,0,1,69.34,114c-1.13,0-2.27,0-3.4,0l-18.2,18.22a67.64,67.64,0,0,0,84.51-84.5Z"/><path class="cls-1" d="M217.08,110.25c-5.47,2.54-13.24,3.69-19.48,3.69-17.32,0-32-9.17-32-28.4a38.57,38.57,0,0,1,10.06-26.1,33.25,33.25,0,0,1,24.83-10.95c14.9,0,26.74,9.55,26.74,25.72a46.58,46.58,0,0,1-1.4,11.21H180.94c.51,10.44,7.9,15.79,18.34,15.79,7.13,0,15-2.55,20.37-5.1ZM213,74.72C213,66.06,208.3,61,200,61c-8.53,0-14.64,5.35-17.44,13.75Z"/><path class="cls-1" d="M251.94,15.25h15.4l-10.57,60H257l30.22-25.32h19l-33.52,28,21.65,34.64H276.81l-20.5-33.24h-.26l-5.86,33.24h-15.4Z"/><path class="cls-1" d="M322.52,15.25h15.42l-17.2,97.29H305.33Z"/><path class="cls-1" d="M391.41,110.25c-5.47,2.54-13.24,3.68-19.47,3.68-17.32,0-32-9.17-32-28.4A38.48,38.48,0,0,1,350,59.43a33.23,33.23,0,0,1,24.83-11c14.89,0,26.74,9.55,26.74,25.72a46.59,46.59,0,0,1-1.41,11.21H355.25c.51,10.44,7.89,15.79,18.33,15.79,7.13,0,15-2.55,20.38-5.1Zm-4.08-35.53c0-8.66-4.71-13.75-13-13.75-8.53,0-14.65,5.35-17.45,13.75Z"/><path class="cls-1" d="M426.3,15.25h15.41l-10.57,60h.25l30.18-25.32h19l-33.51,28,21.64,34.64H451.13l-20.5-33.24h-.25l-5.86,33.24H409.11Z"/><path class="cls-1" d="M504.23,86.69a39.21,39.21,0,0,0-.64,6.11c0,4.84,2.42,7.9,8.15,7.9a25.16,25.16,0,0,0,7.64-1.4l-2.44,13.37a29.46,29.46,0,0,1-8.65,1.27c-10.93,0-20.35-5.35-20.35-18.34a48.89,48.89,0,0,1,.89-8.53L493,63H482.2l2.29-13.08h10.83l3.05-17.44,15.54-.9-3.18,18.34h17.44l-2.29,13.12H508.43Z"/><path class="cls-1" d="M529.94,84.93a38,38,0,0,1,10.44-26.11c6.36-6.62,15.15-10.31,25.21-10.31,17.57,0,30.69,11.2,30.69,29a37.85,37.85,0,0,1-10.44,26.1c-6.35,6.64-15.14,10.32-25.2,10.32C543.07,113.93,529.94,102.73,529.94,84.93Zm44.82,9.8a24.2,24.2,0,0,0,6.18-16.19c0-9.42-5.86-16.55-16.17-16.55a17.26,17.26,0,0,0-13.24,5.73,24.24,24.24,0,0,0-6.17,16.21c0,9.42,5.86,16.55,16.17,16.55a17.24,17.24,0,0,0,13.25-5.77Z"/><path class="cls-1" d="M606.74,91.93a42.24,42.24,0,0,0,25.09,9c3.18,0,6.11-.51,7.89-2.16a6.17,6.17,0,0,0,2-4.59c0-5.47-7.39-5.47-15.54-7.77-10.69-2.92-16.81-7.64-16.81-16.42a20.27,20.27,0,0,1,7-15.15c4.84-4.33,11.71-6.37,19.35-6.37a57.27,57.27,0,0,1,24.22,5.75l-2.55,14.39c-6.24-4.08-15.41-7-22.67-7-3,0-5.34.51-7,1.66a6,6,0,0,0-2.67,4.84c0,5.35,7.51,5.35,15.28,7.38,11,2.81,16.93,7.77,16.93,16.94a20.35,20.35,0,0,1-6.08,14.5c-5.09,5.09-12.61,7-20.75,7a54.69,54.69,0,0,1-26.36-6.88Z"/><path class="cls-1" d="M669.94,104.52a10.51,10.51,0,0,1,10.57-10.44,9.35,9.35,0,0,1,9.55,9.15v.27a10.52,10.52,0,0,1-10.61,10.43h0a9.33,9.33,0,0,1-9.5-9.19A1.62,1.62,0,0,1,669.94,104.52Z"/><path class="cls-1" d="M717.65,49.93h15.41l-11.12,62.61H706.57Zm12-30.81a9.05,9.05,0,0,1,9.3,8.8v.2a10.1,10.1,0,0,1-10.28,9.93h0a8.92,8.92,0,0,1-9-8.84v-.16a10,10,0,0,1,10-10Z"/><path class="cls-1" d="M741.21,84.93a38,38,0,0,1,10.44-26.11C758,52.2,766.8,48.51,776.86,48.51c17.58,0,30.69,11.2,30.69,29a37.85,37.85,0,0,1-10.44,26.1c-6.37,6.64-15.17,10.32-25.17,10.32C754.33,113.93,741.21,102.73,741.21,84.93ZM786,94.73a24.2,24.2,0,0,0,6.11-16.17C792.14,69.14,786.29,62,776,62a17.3,17.3,0,0,0-13.24,5.73,24.27,24.27,0,0,0-6.11,16.19c0,9.42,5.86,16.55,16.17,16.55A17.21,17.21,0,0,0,786,94.71Z"/></g></g></g></g></svg>