<svg xmlns="http://www.w3.org/2000/svg" xmlns:xlink="http://www.w3.org/1999/xlink" viewBox="0 0 135.25 135.26"><defs><style>.cls-1{fill:url(#linear-gradient);}</style><linearGradient id="linear-gradient" x1="20.84" y1="114.41" x2="116.53" y2="18.72" gradientUnits="userSpaceOnUse"><stop offset="0" stop-color="#3e9fff"/><stop offset="0.58" stop-color="#5441ff"/><stop offset="1" stop-color="#6300ff"/></linearGradient></defs><g id="Layer_2" data-name="Layer 2"><g id="Layer_1-2" data-name="Layer 1"><path class="cls-1" d="M115.47,34.74l6.89-6.89A67.65,67.65,0,0,0,3,87.45L21.17,69.23a46.47,46.47,0,0,1,71-41.1L28.13,92.18l-8.35,8.34-6.89,6.89a68.59,68.59,0,0,0,6.89,8.07,69.46,69.46,0,0,0,8.06,6.89l6.89-6.89,8.35-8.35,64.05-64Z"/><path class="cls-1" d="M132.31,47.81,114.08,66A46.42,46.42,0,0,1,66,114.09L47.8,132.31a67.64,67.64,0,0,0,84.51-84.5Z"/></g></g></svg>