<svg xmlns="http://www.w3.org/2000/svg" xmlns:xlink="http://www.w3.org/1999/xlink" viewBox="0 0 807.61 135.26"><defs><style>.cls-1{fill:url(#linear-gradient);}.cls-2{fill:#3a3a3a;}.cls-3{fill:#9b9b9b;}</style><linearGradient id="linear-gradient" x1="20.84" y1="114.41" x2="116.53" y2="18.72" gradientUnits="userSpaceOnUse"><stop offset="0" stop-color="#3e9fff"/><stop offset="0.58" stop-color="#5441ff"/><stop offset="1" stop-color="#6300ff"/></linearGradient></defs><g id="Layer_2" data-name="Layer 2"><g id="Layer_1-2" data-name="Layer 1"><path class="cls-1" d="M115.47,34.74l6.89-6.89A67.65,67.65,0,0,0,3,87.45L21.17,69.23a46.47,46.47,0,0,1,71-41.1L28.13,92.18l-8.35,8.34-6.89,6.89a68.59,68.59,0,0,0,6.89,8.07,69.46,69.46,0,0,0,8.06,6.89l6.89-6.89,8.35-8.35,64.05-64Z"/><path class="cls-1" d="M132.31,47.81,114.08,66A46.42,46.42,0,0,1,66,114.09L47.8,132.31a67.64,67.64,0,0,0,84.51-84.5Z"/><path class="cls-2" d="M217.14,110.32c-5.47,2.54-13.24,3.69-19.48,3.69-17.32,0-32-9.17-32-28.4a38.49,38.49,0,0,1,10.06-26.1,33.24,33.24,0,0,1,24.83-10.95c14.9,0,26.74,9.55,26.74,25.72a47.48,47.48,0,0,1-1.4,11.21H181c.51,10.44,7.9,15.79,18.34,15.79,7.13,0,15-2.55,20.37-5.1Zm-4.07-35.53c0-8.66-4.71-13.75-13-13.75-8.53,0-14.64,5.35-17.44,13.75Z"/><path class="cls-2" d="M252,15.32h15.4l-10.57,60h.26L287.31,50h19L272.79,78l21.65,34.64H276.87l-20.5-33.24h-.26l-5.86,33.24h-15.4Z"/><path class="cls-2" d="M322.58,15.32H338L320.8,112.61H305.39Z"/><path class="cls-2" d="M391.47,110.32C386,112.86,378.23,114,372,114c-17.32,0-32-9.17-32-28.4a38.44,38.44,0,0,1,10.06-26.1,33.22,33.22,0,0,1,24.83-10.95c14.89,0,26.74,9.55,26.74,25.72a47,47,0,0,1-1.41,11.21H355.31c.51,10.44,7.89,15.79,18.33,15.79,7.13,0,15-2.55,20.38-5.1Zm-4.08-35.53c0-8.66-4.71-13.75-13-13.75-8.53,0-14.65,5.35-17.45,13.75Z"/><path class="cls-2" d="M426.36,15.32h15.41l-10.57,60h.25L461.63,50h19L447.12,78l21.64,34.64H451.19l-20.5-33.24h-.25l-5.86,33.24H409.17Z"/><path class="cls-2" d="M504.29,86.76a38.62,38.62,0,0,0-.64,6.11c0,4.84,2.42,7.9,8.15,7.9a25.46,25.46,0,0,0,7.64-1.4L517,112.74a29.57,29.57,0,0,1-8.65,1.27C497.42,114,488,108.66,488,95.67a47.89,47.89,0,0,1,.89-8.53l4.21-24.06H482.26L484.55,50h10.83l3.05-17.44,15.54-.9L510.79,50h17.44l-2.29,13.12H508.49Z"/><path class="cls-2" d="M530,85a37.91,37.91,0,0,1,10.44-26.11c6.36-6.62,15.15-10.31,25.21-10.31,17.57,0,30.69,11.2,30.69,29a37.93,37.93,0,0,1-10.44,26.1C579.55,110.32,570.76,114,560.7,114,543.13,114,530,102.8,530,85Zm44.82,9.8A24.23,24.23,0,0,0,581,78.61c0-9.42-5.86-16.55-16.17-16.55a17.24,17.24,0,0,0-13.24,5.73A24.19,24.19,0,0,0,545.42,84c0,9.42,5.86,16.55,16.17,16.55A17.26,17.26,0,0,0,574.84,94.78Z"/><path class="cls-2" d="M606.8,92a42.25,42.25,0,0,0,25.09,9c3.18,0,6.11-.51,7.89-2.16a6.2,6.2,0,0,0,2-4.59c0-5.47-7.39-5.47-15.54-7.77-10.69-2.92-16.81-7.64-16.81-16.42a20.25,20.25,0,0,1,7-15.15c4.84-4.33,11.71-6.37,19.35-6.37A57.17,57.17,0,0,1,660,54.29l-2.55,14.39c-6.24-4.08-15.41-7-22.67-7-3,0-5.34.51-7,1.66a6,6,0,0,0-2.67,4.84c0,5.35,7.51,5.35,15.28,7.38,11,2.81,16.93,7.77,16.93,16.94A20.4,20.4,0,0,1,651.24,107c-5.09,5.09-12.61,7-20.75,7a54.71,54.71,0,0,1-26.36-6.88Z"/><path class="cls-3" d="M670,104.59a10.51,10.51,0,0,1,10.57-10.44,9.35,9.35,0,0,1,9.55,9.42A10.52,10.52,0,0,1,679.51,114,9.35,9.35,0,0,1,670,104.59Z"/><path class="cls-3" d="M717.71,50h15.41L722,112.61H706.63Zm12-30.81a9.05,9.05,0,0,1,9.3,9,10.11,10.11,0,0,1-10.32,9.93,8.92,8.92,0,0,1-9-9A10,10,0,0,1,729.68,19.15Z"/><path class="cls-3" d="M741.27,85a38,38,0,0,1,10.44-26.11c6.37-6.62,15.15-10.31,25.21-10.31,17.58,0,30.69,11.2,30.69,29a37.88,37.88,0,0,1-10.44,26.1C790.8,110.32,782,114,772,114,754.39,114,741.27,102.8,741.27,85Zm44.82,9.8a24.23,24.23,0,0,0,6.11-16.17c0-9.42-5.85-16.55-16.17-16.55a17.26,17.26,0,0,0-13.24,5.73A24.23,24.23,0,0,0,756.68,84c0,9.42,5.86,16.55,16.17,16.55A17.26,17.26,0,0,0,786.09,94.78Z"/></g></g></svg>