<svg xmlns="http://www.w3.org/2000/svg" viewBox="0 0 235.26 34.74"><defs><style>.cls-1{fill:#fff;}</style></defs><g id="Layer_2" data-name="Layer 2"><g id="Layer_1-2" data-name="Layer 1"><path class="cls-1" d="M11.59,2.23a8.79,8.79,0,0,1,3.78.7,17.5,17.5,0,0,1,2.7,1.64,1.39,1.39,0,0,0,.72.36q.69,0,.9-2.19h.83c-.05.88-.08,2-.11,3.24s0,2.95,0,5h-.83c-.17-1-.37-2-.61-2.92a6.13,6.13,0,0,0-1.19-2.41A6.9,6.9,0,0,0,15,3.62a8.68,8.68,0,0,0-3.49-.74,6.15,6.15,0,0,0-3.26.88A7.79,7.79,0,0,0,5.76,6.3a13,13,0,0,0-1.6,4,22.57,22.57,0,0,0-.56,5.24Q3.6,22,5.69,25t6.48,3a6.16,6.16,0,0,0,2.25-.38,8.22,8.22,0,0,0,1.49-.74,2.3,2.3,0,0,0,.87-.88,2.8,2.8,0,0,0,.18-1.1V21.46a6.32,6.32,0,0,0-.29-2.2,1.63,1.63,0,0,0-1.06-1A8.29,8.29,0,0,0,13.32,18v-.72l1.51,0,1.82,0,1.75,0c.79,0,1.5,0,2.14,0l1.6-.07V18c-.79.05-1.3.24-1.51.58a5.7,5.7,0,0,0-.33,2.52v7.12h-.72a5.07,5.07,0,0,0-.27-1.33c-.15-.48-.39-.72-.7-.72a1,1,0,0,0-.43.11,6.89,6.89,0,0,0-.76.5,10.54,10.54,0,0,1-2.52,1.43,8.58,8.58,0,0,1-3.09.52q-5.58,0-8.7-3.4T0,15.91A16.21,16.21,0,0,1,1.51,8.64,11.5,11.5,0,0,1,5.63,3.91,10.78,10.78,0,0,1,11.59,2.23Z"/><path class="cls-1" d="M33.23,9.18a8.51,8.51,0,0,1,4.14,1,7.19,7.19,0,0,1,2.93,3.17A12.42,12.42,0,0,1,41.4,19a12.31,12.31,0,0,1-1.1,5.6,7.19,7.19,0,0,1-2.93,3.15,8.95,8.95,0,0,1-8.26,0,7.2,7.2,0,0,1-3-3.15A12.32,12.32,0,0,1,25.06,19a12.42,12.42,0,0,1,1.09-5.61,7.19,7.19,0,0,1,3-3.17A8.49,8.49,0,0,1,33.23,9.18Zm0,.72A3.89,3.89,0,0,0,29.86,12q-1.3,2.13-1.31,7t1.31,6.93a3.74,3.74,0,0,0,6.73,0q1.32-2.1,1.32-6.93T36.59,12A3.87,3.87,0,0,0,33.23,9.9Z"/><path class="cls-1" d="M50.58,9.18A5.85,5.85,0,0,1,53,9.65a6.85,6.85,0,0,1,1.47.86c.8.65,1.27.22,1.44-1.29h.83c-.05.67-.08,1.47-.11,2.39s0,2.17,0,3.73H55.8a11.33,11.33,0,0,0-.74-2.6,5.15,5.15,0,0,0-1.53-2.07,4.07,4.07,0,0,0-2.63-.81,3.16,3.16,0,0,0-2.1.71A2.5,2.5,0,0,0,48,12.64a2.8,2.8,0,0,0,.65,1.85,7,7,0,0,0,1.69,1.44c.7.44,1.45.93,2.27,1.46a24.32,24.32,0,0,1,3.49,2.7,4.73,4.73,0,0,1,1.44,3.6,4.42,4.42,0,0,1-.86,2.77,5.46,5.46,0,0,1-2.25,1.69,7.77,7.77,0,0,1-3,.58,8,8,0,0,1-1.5-.13,6.74,6.74,0,0,1-1.35-.38,7.35,7.35,0,0,1-.74-.43c-.25-.17-.5-.35-.73-.54a.43.43,0,0,0-.65,0,2.27,2.27,0,0,0-.43,1.21h-.83c0-.77.08-1.71.11-2.81s0-2.57,0-4.39h.83a20.91,20.91,0,0,0,.72,3.52,4.77,4.77,0,0,0,1.48,2.36,4.18,4.18,0,0,0,2.8.85,3.66,3.66,0,0,0,2.15-.76,3.06,3.06,0,0,0,1.06-2.66A3.3,3.3,0,0,0,53.14,22a23.42,23.42,0,0,0-2.92-2.13q-1.29-.82-2.43-1.65A7.61,7.61,0,0,1,46,16.34a4.44,4.44,0,0,1-.7-2.52A4.41,4.41,0,0,1,46,11.18a4.27,4.27,0,0,1,2-1.51A7,7,0,0,1,50.58,9.18Z"/><path class="cls-1" d="M66,9.29v22.1a2.18,2.18,0,0,0,.92,2.07,5.14,5.14,0,0,0,2.54.52v.76l-2.2-.09c-.94,0-1.93,0-3,0-.74,0-1.48,0-2.21,0l-1.68.09V34a2.83,2.83,0,0,0,1.84-.46,2.3,2.3,0,0,0,.54-1.77V13.61a4.08,4.08,0,0,0-.57-2.4A2.58,2.58,0,0,0,60,10.44V9.68a21.33,21.33,0,0,0,2.23.11,16.16,16.16,0,0,0,2-.12A10.63,10.63,0,0,0,66,9.29Zm5.76-.11a6,6,0,0,1,4.77,2.29c1.28,1.52,1.93,3.73,1.93,6.64a15.42,15.42,0,0,1-.85,5,9.19,9.19,0,0,1-2.64,4,7,7,0,0,1-4.76,1.57,5.39,5.39,0,0,1-2.93-.79A4,4,0,0,1,65.56,26l.36-.51a4.55,4.55,0,0,0,1.45,1.7,4.07,4.07,0,0,0,2.4.68,4,4,0,0,0,3.13-1.26,7.39,7.39,0,0,0,1.57-3.37,22.26,22.26,0,0,0,.45-4.66,19.61,19.61,0,0,0-.47-4.71A5.66,5.66,0,0,0,73,11.16a3.18,3.18,0,0,0-2.3-.9,4.39,4.39,0,0,0-3.2,1.46,7.44,7.44,0,0,0-1.84,4.41l-.43-.51a7.64,7.64,0,0,1,2.18-4.75A6,6,0,0,1,71.71,9.18Z"/><path class="cls-1" d="M89.89,9.18a6.4,6.4,0,0,1,5,1.93q1.78,1.92,1.78,6H83.91l0-.68h9.29a12.11,12.11,0,0,0-.29-3.26,5.6,5.6,0,0,0-1.14-2.4,2.5,2.5,0,0,0-2-.9,3.69,3.69,0,0,0-2.94,1.66,9.84,9.84,0,0,0-1.53,5.26l.11.14c0,.36-.08.76-.11,1.19s0,.86,0,1.29A10.22,10.22,0,0,0,86,23.62a6.51,6.51,0,0,0,2.07,2.68,4.48,4.48,0,0,0,2.64.92,5.85,5.85,0,0,0,3-.8,6,6,0,0,0,2.31-2.8l.72.28a7.55,7.55,0,0,1-1.3,2.31A7,7,0,0,1,93.2,28a7,7,0,0,1-3.17.7,8.07,8.07,0,0,1-4.44-1.19,7.69,7.69,0,0,1-2.85-3.29,11.3,11.3,0,0,1-1-4.85,13.46,13.46,0,0,1,1-5.45,8,8,0,0,1,2.85-3.53A7.43,7.43,0,0,1,89.89,9.18Z"/><path class="cls-1" d="M105.08,0V24.88a2.64,2.64,0,0,0,.63,2.05,3.24,3.24,0,0,0,2.11.54v.75L106,28.13c-.82,0-1.66-.05-2.5-.05s-1.64,0-2.48.05l-1.87.09v-.75a3.23,3.23,0,0,0,2.1-.54,2.64,2.64,0,0,0,.63-2.05V4.32a4,4,0,0,0-.57-2.39,2.55,2.55,0,0,0-2.16-.78V.4c.76.07,1.51.1,2.23.1a16.16,16.16,0,0,0,2-.12A10.63,10.63,0,0,0,105.08,0Z"/><path class="cls-1" d="M138,2.74c-.09.91-.16,1.79-.2,2.64s0,1.51,0,2,0,1.12,0,1.62,0,.95.07,1.34h-.83a23.5,23.5,0,0,0-.68-4,3.51,3.51,0,0,0-1.52-2.11,6.69,6.69,0,0,0-3.34-.65h-1.95V24.05a6.52,6.52,0,0,0,.27,2.16,1.59,1.59,0,0,0,1.06,1,9.15,9.15,0,0,0,2.31.32v.72c-.63,0-1.42-.07-2.38-.09h-6c-.94,0-1.71.05-2.28.09V27.5a9.06,9.06,0,0,0,2.3-.32,1.57,1.57,0,0,0,1.06-1,6.52,6.52,0,0,0,.27-2.16V3.56h-1.94a6.73,6.73,0,0,0-3.33.65,3.48,3.48,0,0,0-1.53,2.11,21.64,21.64,0,0,0-.68,4h-.83A12.49,12.49,0,0,0,118,9c0-.5,0-1,0-1.62s0-1.11-.06-2-.1-1.73-.2-2.64l3.3.07c1.19,0,2.38,0,3.58,0h6.53l3.59,0Z"/><path class="cls-1" d="M145.55,0V13.5a6.15,6.15,0,0,1,2.61-3.38,7,7,0,0,1,3.51-.94,6.27,6.27,0,0,1,2.28.36,4.22,4.22,0,0,1,1.53,1,4,4,0,0,1,1,1.8,11.34,11.34,0,0,1,.29,2.91v9.62a2.64,2.64,0,0,0,.63,2.05,3.24,3.24,0,0,0,2.11.54v.75l-1.87-.09c-.84,0-1.66-.05-2.45-.05s-1.57,0-2.32.05l-1.71.09v-.75a2.53,2.53,0,0,0,1.83-.54,2.93,2.93,0,0,0,.54-2.05V14.47a10.86,10.86,0,0,0-.18-2.05,2.66,2.66,0,0,0-.81-1.51,2.74,2.74,0,0,0-1.92-.58A4.41,4.41,0,0,0,147,12.15a7.39,7.39,0,0,0-1.42,4.7v8a2.93,2.93,0,0,0,.54,2.05,2.53,2.53,0,0,0,1.83.54v.75l-1.71-.09c-.75,0-1.53-.05-2.32-.05s-1.61,0-2.45.05l-1.87.09v-.75a3.26,3.26,0,0,0,2.11-.54,2.64,2.64,0,0,0,.63-2.05V4.36a4.08,4.08,0,0,0-.58-2.4,2.55,2.55,0,0,0-2.16-.77V.43c.77.07,1.51.11,2.23.11a14.3,14.3,0,0,0,2-.13A10.56,10.56,0,0,0,145.55,0Z"/><path class="cls-1" d="M169.81,9.18a6.4,6.4,0,0,1,4.95,1.93q1.78,1.92,1.78,6H163.83l0-.68h9.29a12.11,12.11,0,0,0-.29-3.26,5.6,5.6,0,0,0-1.14-2.4,2.5,2.5,0,0,0-2-.9,3.69,3.69,0,0,0-2.94,1.66,9.84,9.84,0,0,0-1.53,5.26l.11.14c-.05.36-.08.76-.11,1.19s0,.86,0,1.29a10.22,10.22,0,0,0,.79,4.22A6.51,6.51,0,0,0,168,26.3a4.48,4.48,0,0,0,2.64.92,5.85,5.85,0,0,0,3-.8,6,6,0,0,0,2.31-2.8l.72.28a7.55,7.55,0,0,1-1.3,2.31A7,7,0,0,1,173.12,28a7,7,0,0,1-3.17.7,8.07,8.07,0,0,1-4.44-1.19,7.69,7.69,0,0,1-2.85-3.29,11.3,11.3,0,0,1-1-4.85,13.46,13.46,0,0,1,1-5.45,8,8,0,0,1,2.85-3.53A7.43,7.43,0,0,1,169.81,9.18Z"/><path class="cls-1" d="M191.16,9.18a6.05,6.05,0,0,1,2.19.36,4.13,4.13,0,0,1,1.55,1,3.82,3.82,0,0,1,.94,1.87,13.48,13.48,0,0,1,.25,2.84v9.62a2.64,2.64,0,0,0,.63,2.05,3.24,3.24,0,0,0,2.11.54v.75L197,28.13c-.84,0-1.65-.05-2.44-.05s-1.57,0-2.33.05l-1.71.09v-.75a2.54,2.54,0,0,0,1.84-.54,2.93,2.93,0,0,0,.54-2.05V14.47a14.36,14.36,0,0,0-.14-2.05,2.68,2.68,0,0,0-.72-1.51,2.57,2.57,0,0,0-1.88-.58,3.92,3.92,0,0,0-2.5.87,5.78,5.78,0,0,0-1.73,2.35,8.52,8.52,0,0,0-.63,3.33v8a2.93,2.93,0,0,0,.54,2.05,2.56,2.56,0,0,0,1.84.54v.75l-1.71-.09c-.76,0-1.53-.05-2.32-.05s-1.61,0-2.45.05l-1.87.09v-.75a3.23,3.23,0,0,0,2.1-.54,2.64,2.64,0,0,0,.63-2.05V13.61a4.08,4.08,0,0,0-.57-2.4,2.58,2.58,0,0,0-2.16-.77V9.68a21.47,21.47,0,0,0,2.23.11,16,16,0,0,0,2-.12,10.41,10.41,0,0,0,1.74-.38v4.25a6.73,6.73,0,0,1,2.56-3.35A6.29,6.29,0,0,1,191.16,9.18Zm10.83,0a6.11,6.11,0,0,1,2.2.36,4.21,4.21,0,0,1,1.55,1,3.8,3.8,0,0,1,.93,1.87,13.41,13.41,0,0,1,.26,2.84v9.62a2.64,2.64,0,0,0,.63,2.05,3.23,3.23,0,0,0,2.1.54v.75l-1.87-.09c-.84,0-1.66-.05-2.45-.05s-1.56,0-2.32.05l-1.71.09v-.75a2.56,2.56,0,0,0,1.84-.54,2.93,2.93,0,0,0,.54-2.05V14.47a13,13,0,0,0-.15-2.05,2.56,2.56,0,0,0-.72-1.51,2.54,2.54,0,0,0-1.87-.58,4.18,4.18,0,0,0-3.47,1.87,7.57,7.57,0,0,0-1.39,4.65L196,13.5a6.3,6.3,0,0,1,2.63-3.4A6.91,6.91,0,0,1,202,9.18Z"/><path class="cls-1" d="M220,9.18a6.38,6.38,0,0,1,4.95,1.93q1.78,1.92,1.79,6H214l0-.68h9.29a11.72,11.72,0,0,0-.29-3.26,5.71,5.71,0,0,0-1.13-2.4,2.52,2.52,0,0,0-2-.9,3.69,3.69,0,0,0-2.93,1.66,9.66,9.66,0,0,0-1.53,5.26l.1.14c-.05.36-.08.76-.1,1.19s0,.86,0,1.29a10.22,10.22,0,0,0,.79,4.22,6.51,6.51,0,0,0,2.07,2.68,4.48,4.48,0,0,0,2.65.92,5.87,5.87,0,0,0,3-.8,6,6,0,0,0,2.3-2.8l.72.28a7.55,7.55,0,0,1-1.3,2.31,6.73,6.73,0,0,1-5.43,2.52,8.1,8.1,0,0,1-4.45-1.19,7.74,7.74,0,0,1-2.84-3.29,11.3,11.3,0,0,1-1-4.85,13.29,13.29,0,0,1,1-5.45,8.1,8.1,0,0,1,2.84-3.53A7.43,7.43,0,0,1,220,9.18Z"/><path class="cls-1" d="M233,24.12a2.34,2.34,0,0,1,2.31,2.3A2.36,2.36,0,0,1,233,28.73a2.34,2.34,0,0,1-2.3-2.31,2.32,2.32,0,0,1,2.3-2.3Z"/></g></g></svg>